<?xml version="1.0" encoding="UTF-8"?>
<!DOCTYPE svg PUBLIC "-//W3C//DTD SVG 1.1//EN" "http://www.w3.org/Graphics/SVG/1.1/DTD/svg11.dtd">
<!-- Creator: CorelDRAW (Evaluation Version) -->
<svg xmlns="http://www.w3.org/2000/svg" xml:space="preserve" width="6.5in" height="3.4in" version="1.1" style="shape-rendering:geometricPrecision; text-rendering:geometricPrecision; image-rendering:optimizeQuality; fill-rule:evenodd; clip-rule:evenodd"
viewBox="0 0 6500 3400"
 xmlns:xlink="http://www.w3.org/1999/xlink"
 xmlns:xodm="http://www.corel.com/coreldraw/odm/2003">
 <defs>
  <style type="text/css">
   <![CDATA[
    .fil1 {fill:url(#id0)}
    .fil2 {fill:url(#id1)}
    .fil3 {fill:url(#id2)}
    .fil0 {fill:url(#id3)}
   ]]>
  </style>
  <linearGradient id="id0" gradientUnits="userSpaceOnUse" x1="7103.98" y1="1555.74" x2="2351.21" y2="-39.44">
   <stop offset="0" style="stop-opacity:1; stop-color:#F7DE7B"/>
   <stop offset="0.121569" style="stop-opacity:1; stop-color:#D5AF54"/>
   <stop offset="0.341176" style="stop-opacity:1; stop-color:#B27F2C"/>
   <stop offset="0.439216" style="stop-opacity:1; stop-color:#D4AE53"/>
   <stop offset="0.839216" style="stop-opacity:1; stop-color:#F7DE7B"/>
   <stop offset="0.960784" style="stop-opacity:1; stop-color:#D5AF54"/>
   <stop offset="1" style="stop-opacity:1; stop-color:#B27F2C"/>
  </linearGradient>
  <linearGradient id="id1" gradientUnits="userSpaceOnUse" xlink:href="#id0" x1="7532.11" y1="3359.42" x2="2650.14" y2="2076.53">
  </linearGradient>
  <linearGradient id="id2" gradientUnits="userSpaceOnUse" xlink:href="#id0" x1="5556.29" y1="2556.8" x2="-1853.89" y2="-148.38">
  </linearGradient>
  <linearGradient id="id3" gradientUnits="userSpaceOnUse" xlink:href="#id0" x1="9725.89" y1="3403.12" x2="-2603.1" y2="207.87">
  </linearGradient>
 </defs>
 <g id="Layer_x0020_1">
  <metadata id="CorelCorpID_0Corel-Layer"/>
  <path class="fil0" d="M758.02 1015.83l0.01 1667.05c0.05,143.41 10.78,304.5 -25.19,433.08 -65.65,234.65 -211.32,155.88 -253.47,211.24 38.23,34.96 270.52,15.06 320.62,15.02l1114.76 12.14c742.77,13.91 1251.78,-289.85 1685.19,-816.91 175.97,-214 416.79,-449 658.31,-589.35 484.02,-281.28 1168.36,-217.53 1737.2,-218.22l482.26 1.41c-89.31,-35.22 -684.08,-113.8 -828.3,-135.68 -720.11,-109.26 -1382.06,-167.98 -1965.63,309.51 -207.42,169.71 -303.57,308.04 -470.4,501.43 -216.17,250.58 -416.68,544.09 -754.98,697.4 -234.1,106.09 -549.9,154.54 -842.97,115.46 -486.54,-64.88 -417.24,-437.95 -417.36,-914.94l-0.19 -1482.96c0.17,-159.41 -39.3,-245.4 -180.15,-278.7 -98.29,-23.24 -304.77,-40.6 -409.07,-44.43 43.16,98.2 149.33,-9.56 149.37,517.44l-0.02 0.01 0 -0z"/>
  <path class="fil1" d="M3540.3 115.83c20.44,48.93 48.8,0.54 150.93,54.53 50.08,26.48 79.34,57.32 107.02,107.73 55.21,100.57 47.42,250.8 47.61,379.78 0.42,278.08 -11.77,586.69 1.65,860.58 63.89,-20.52 132.41,-63.56 199.62,-87.99 74.5,-27.09 149.91,-43.49 226.54,-70l-0.66 -1124.61c195.37,-2.83 874.56,-10.67 1029.03,7.44 521.02,61.09 513.22,420.09 580.92,458.2 30.48,-40.22 -17.64,-551.13 -20.65,-597.84 -375.25,-15.97 -786.52,-0.51 -1165.72,-0.05 -194.31,0.24 -388.65,0.36 -582.96,0.38 -39.4,0 -521.32,-7.27 -558.46,4.58 -2.35,0.75 -5.74,2.75 -7.57,3.44 -1.82,0.69 -5.09,2.18 -7.3,3.81l0 0.02 0 -0z"/>
  <path class="fil2" d="M6002.94 3355.09c28.7,-56.15 256.13,-668.3 251.93,-696.07 -60.5,-4.86 -25.37,-1.69 -99.41,102.11 -299.87,420.41 -538.84,488.85 -1111.27,463.48 -281.17,-12.46 -525.73,-97.56 -641.57,-257.96 -160.85,-222.7 -127.85,-452.15 -130.44,-766 -94.17,34.47 -303.36,240.4 -376.86,325.24 -60.01,69.28 -49.52,71.09 -42.07,180.57 19.07,280.13 181.48,463.09 379.67,552.86 251.96,114.13 533.09,99.21 831.84,98.69 312.74,-0.54 625.44,-2.35 938.19,-2.93l0 0.01 -0 0z"/>
  <path class="fil3" d="M3076.43 2493.65l146.69 -178.36c147.98,-185.52 91.17,-163.07 303.06,-373.3 138.49,-137.4 119.99,-64.63 114.42,-281.78 -14.36,-560.5 -263.54,-1010.78 -703.44,-1288.34 -378.81,-239.02 -804.05,-268.89 -1329.24,-268.42 -265.91,0.24 -531.83,-0.14 -797.73,0.41 -264.43,0.54 -548.56,-9.65 -810.39,1.95 19.64,17.35 20.95,16.69 56.6,28.31 26.65,8.69 48.43,14.37 70.69,20.62 144.62,40.59 297.78,63.5 450.93,70.79 233.15,11.1 469.03,6.36 702.63,6.36 470.41,0 853.72,-18.17 1210.04,197.71 496.74,300.96 687.07,851.75 666.35,1445.33 -12.66,362.45 -79.19,497.94 -80.6,618.72l-0.01 0 0 0z"/>
 </g>
</svg>
