<?xml version="1.0" encoding="UTF-8"?>
<!DOCTYPE svg PUBLIC "-//W3C//DTD SVG 1.1//EN" "http://www.w3.org/Graphics/SVG/1.1/DTD/svg11.dtd">
<!-- Creator: CorelDRAW (Evaluation Version) -->
<svg xmlns="http://www.w3.org/2000/svg" xml:space="preserve" width="6.5in" height="4.2in" version="1.1" style="shape-rendering:geometricPrecision; text-rendering:geometricPrecision; image-rendering:optimizeQuality; fill-rule:evenodd; clip-rule:evenodd"
viewBox="0 0 6500 4200"
 xmlns:xlink="http://www.w3.org/1999/xlink"
 xmlns:xodm="http://www.corel.com/coreldraw/odm/2003">
 <defs>
  <style type="text/css">
   <![CDATA[
    .fil0 {fill:url(#id0)}
    .fil1 {fill:url(#id1)}
    .fil3 {fill:url(#id2)}
    .fil2 {fill:url(#id3)}
    .fil14 {fill:url(#id4);fill-rule:nonzero}
    .fil5 {fill:url(#id5);fill-rule:nonzero}
    .fil9 {fill:url(#id6);fill-rule:nonzero}
    .fil10 {fill:url(#id7);fill-rule:nonzero}
    .fil8 {fill:url(#id8);fill-rule:nonzero}
    .fil7 {fill:url(#id9);fill-rule:nonzero}
    .fil16 {fill:url(#id10);fill-rule:nonzero}
    .fil13 {fill:url(#id11);fill-rule:nonzero}
    .fil4 {fill:url(#id12);fill-rule:nonzero}
    .fil6 {fill:url(#id13);fill-rule:nonzero}
    .fil15 {fill:url(#id14);fill-rule:nonzero}
    .fil11 {fill:url(#id15);fill-rule:nonzero}
    .fil12 {fill:url(#id16);fill-rule:nonzero}
   ]]>
  </style>
  <linearGradient id="id0" gradientUnits="userSpaceOnUse" x1="9756.67" y1="3395.6" x2="-2573.33" y2="174.55">
   <stop offset="0" style="stop-opacity:1; stop-color:#F7DE7B"/>
   <stop offset="0.121569" style="stop-opacity:1; stop-color:#D5AF54"/>
   <stop offset="0.341176" style="stop-opacity:1; stop-color:#B27F2C"/>
   <stop offset="0.439216" style="stop-opacity:1; stop-color:#D4AE53"/>
   <stop offset="0.839216" style="stop-opacity:1; stop-color:#F7DE7B"/>
   <stop offset="0.960784" style="stop-opacity:1; stop-color:#D5AF54"/>
   <stop offset="1" style="stop-opacity:1; stop-color:#B27F2C"/>
  </linearGradient>
  <linearGradient id="id1" gradientUnits="userSpaceOnUse" xlink:href="#id0" x1="7165.49" y1="1534.32" x2="2371.07" y2="-71.79">
  </linearGradient>
  <linearGradient id="id2" gradientUnits="userSpaceOnUse" xlink:href="#id0" x1="5617.9" y1="2535.39" x2="-1834.07" y2="-177.78">
  </linearGradient>
  <linearGradient id="id3" gradientUnits="userSpaceOnUse" xlink:href="#id0" x1="7575.8" y1="3352.82" x2="2660.05" y2="2053.13">
  </linearGradient>
  <linearGradient id="id4" gradientUnits="userSpaceOnUse" xlink:href="#id0" x1="5570.81" y1="4025.32" x2="4941.5" y2="3693.02">
  </linearGradient>
  <linearGradient id="id5" gradientUnits="userSpaceOnUse" xlink:href="#id0" x1="1214.28" y1="4025.34" x2="584.96" y2="3693.02">
  </linearGradient>
  <linearGradient id="id6" gradientUnits="userSpaceOnUse" xlink:href="#id0" x1="3039.3" y1="3900.92" x2="2692.53" y2="3817.45">
  </linearGradient>
  <linearGradient id="id7" gradientUnits="userSpaceOnUse" xlink:href="#id0" x1="3608.76" y1="4010.72" x2="2989.59" y2="3707.28">
  </linearGradient>
  <linearGradient id="id8" gradientUnits="userSpaceOnUse" xlink:href="#id0" x1="2833.97" y1="4092.93" x2="2131.12" y2="3625.41">
  </linearGradient>
  <linearGradient id="id9" gradientUnits="userSpaceOnUse" xlink:href="#id0" x1="2246.67" y1="4057.15" x2="1575.35" y2="3659.24">
  </linearGradient>
  <linearGradient id="id10" gradientUnits="userSpaceOnUse" xlink:href="#id0" x1="6414.33" y1="3971.43" x2="5865.03" y2="3746.58">
  </linearGradient>
  <linearGradient id="id11" gradientUnits="userSpaceOnUse" xlink:href="#id0" x1="5003.44" y1="3951.93" x2="4505.16" y2="3766.44">
  </linearGradient>
  <linearGradient id="id12" gradientUnits="userSpaceOnUse" xlink:href="#id0" x1="756.7" y1="4028.07" x2="123.65" y2="3690.26">
  </linearGradient>
  <linearGradient id="id13" gradientUnits="userSpaceOnUse" xlink:href="#id0" x1="1702.26" y1="4025.32" x2="1072.94" y2="3693.02">
  </linearGradient>
  <linearGradient id="id14" gradientUnits="userSpaceOnUse" xlink:href="#id0" x1="6039.73" y1="4011.17" x2="5430.74" y2="3707.2">
  </linearGradient>
  <linearGradient id="id15" gradientUnits="userSpaceOnUse" xlink:href="#id0" x1="4136.14" y1="3951.93" x2="3637.85" y2="3766.44">
  </linearGradient>
  <linearGradient id="id16" gradientUnits="userSpaceOnUse" xlink:href="#id0" x1="4668.42" y1="4041" x2="4018.81" y2="3677.37">
  </linearGradient>
 </defs>
 <g id="Layer_x0020_1">
  <metadata id="CorelCorpID_0Corel-Layer"/>
  <path class="fil0" d="M788.12 993.87l0.01 1667.05c0.05,143.41 10.78,304.5 -25.19,433.08 -65.65,234.65 -211.32,155.88 -253.47,211.24 38.23,34.96 270.52,15.06 320.62,15.02l1114.76 12.14c742.77,13.91 1251.78,-289.85 1685.19,-816.91 175.97,-214 416.79,-449 658.31,-589.35 484.02,-281.28 1168.36,-217.53 1737.2,-218.22l482.26 1.41c-89.31,-35.22 -684.08,-113.8 -828.3,-135.68 -720.11,-109.26 -1382.06,-167.98 -1965.63,309.51 -207.42,169.71 -303.57,308.04 -470.4,501.43 -216.17,250.58 -416.68,544.09 -754.98,697.4 -234.1,106.09 -549.9,154.54 -842.97,115.46 -486.54,-64.88 -417.24,-437.95 -417.36,-914.94l-0.19 -1482.96c0.17,-159.41 -39.3,-245.4 -180.15,-278.7 -98.29,-23.24 -304.77,-40.6 -409.07,-44.43 43.16,98.2 149.33,-9.56 149.37,517.44l-0.02 0.01z"/>
  <path class="fil1" d="M3570.4 93.87c20.44,48.93 48.8,0.54 150.93,54.53 50.08,26.48 79.34,57.32 107.02,107.73 55.21,100.57 47.42,250.8 47.61,379.78 0.42,278.08 -11.77,586.69 1.65,860.58 63.89,-20.52 132.41,-63.56 199.62,-87.99 74.5,-27.09 149.91,-43.49 226.54,-70l-0.66 -1124.61c195.37,-2.83 874.56,-10.67 1029.03,7.44 521.02,61.09 513.22,420.09 580.92,458.2 30.48,-40.22 -17.64,-551.13 -20.65,-597.84 -375.25,-15.97 -786.52,-0.51 -1165.72,-0.05 -194.31,0.24 -388.65,0.36 -582.96,0.38 -39.4,0 -521.32,-7.27 -558.46,4.58 -2.35,0.75 -5.74,2.75 -7.57,3.44 -1.82,0.69 -5.09,2.18 -7.3,3.81l0 0.02z"/>
  <path class="fil2" d="M6033.05 3333.13c28.7,-56.15 256.13,-668.3 251.93,-696.07 -60.5,-4.86 -25.37,-1.69 -99.41,102.11 -299.87,420.41 -538.84,488.85 -1111.27,463.48 -281.17,-12.46 -525.73,-97.56 -641.57,-257.96 -160.85,-222.7 -127.85,-452.15 -130.44,-766 -94.17,34.47 -303.36,240.4 -376.86,325.24 -60.01,69.28 -49.52,71.09 -42.07,180.57 19.07,280.13 181.48,463.09 379.67,552.86 251.96,114.13 533.09,99.21 831.84,98.69 312.74,-0.54 625.44,-2.35 938.19,-2.93l-0 0.01z"/>
  <path class="fil3" d="M3106.54 2471.69l146.69 -178.36c147.98,-185.52 91.17,-163.07 303.06,-373.3 138.49,-137.4 119.99,-64.63 114.42,-281.78 -14.36,-560.5 -263.54,-1010.78 -703.44,-1288.34 -378.81,-239.02 -804.05,-268.89 -1329.24,-268.42 -265.91,0.24 -531.83,-0.14 -797.73,0.41 -264.43,0.54 -548.56,-9.65 -810.39,1.95 19.64,17.35 20.95,16.69 56.6,28.31 26.65,8.69 48.43,14.37 70.69,20.62 144.62,40.59 297.78,63.5 450.93,70.79 233.15,11.1 469.03,6.36 702.63,6.36 470.41,0 853.72,-18.17 1210.04,197.71 496.74,300.96 687.07,851.75 666.35,1445.33 -12.66,362.45 -79.19,497.94 -80.6,618.72l-0.01 0z"/>
  <path class="fil4" d="M523.93 3860.85c0,51.11 -9.58,93.92 -28.11,128.41 -19.17,34.5 -46.64,60.69 -81.78,77.94 -35.14,17.25 -77.94,26.19 -128.41,26.19l-127.13 0 0 -456.16 140.55 0c46,0 85.61,8.31 119.47,25.56 33.86,17.25 59.42,42.17 77.94,75.39 18.52,32.58 27.47,73.47 27.47,122.66l0 0.01zm-60.69 1.92c0,-40.25 -7.03,-73.47 -20.44,-99.67 -13.42,-26.19 -32.58,-45.36 -58.78,-57.5 -25.56,-12.78 -56.86,-19.17 -93.28,-19.17l-74.75 0 0 357.77 61.97 0c61.97,0 107.97,-15.33 138.63,-45.36 31.31,-30.67 46.64,-76.02 46.64,-136.08l0.01 0z"/>
  <polygon id="_1" class="fil5" points="801.7,3861.48 920.53,3637.24 982.5,3637.24 830.45,3916.43 830.45,4093.39 772.95,4093.39 772.95,3918.98 620.9,3637.24 683.51,3637.24 "/>
  <path id="_2" class="fil6" d="M1470.47 4093.39l-67.08 0 -244.05 -378.85 -2.56 0c0.64,9.58 1.92,21.08 2.56,34.5 0.64,13.42 0.64,28.11 1.28,43.44 0.64,14.69 1.28,30.03 1.28,46l0 254.91 -53.02 0 0 -456.16 66.44 0 243.41 377.57 2.56 0c-0.64,-7.03 -1.28,-17.25 -1.92,-30.67 -0.64,-13.42 -0.64,-28.75 -1.28,-44.72 -0.64,-15.97 -1.28,-31.3 -1.28,-44.72l0 -257.47 53.67 0 0 456.16 -0.01 0.01z"/>
  <path id="_3" class="fil7" d="M1945.01 4093.39l-54.94 -141.19 -180.8 0 -54.3 141.19 -58.14 0 178.24 -458.07 51.75 0 177.61 458.07 -59.42 0zm-123.3 -330.3c-1.28,-3.19 -3.19,-9.58 -6.39,-18.53 -3.2,-8.94 -5.75,-17.89 -8.94,-27.47 -2.56,-9.58 -4.47,-17.25 -6.39,-22.36 -1.92,8.31 -4.47,17.25 -7.03,26.19 -1.92,8.31 -4.47,16.61 -7.03,23.64 -1.92,7.03 -3.83,13.42 -5.75,18.53l-51.75 138 144.39 0 -51.11 -138 0.01 -0z"/>
  <path id="_4" class="fil8" d="M2332.67 4093.39l-150.14 -399.94 -2.56 0c0.64,8.31 1.92,19.17 2.56,32.58 0.64,13.42 0.64,27.47 1.28,43.44 0.64,15.33 0.64,31.31 0.64,47.28l0 276.63 -53.02 0 0 -456.16 84.97 0 140.55 373.74 2.56 0 143.11 -373.74 84.33 0 0 456.16 -56.86 0 0 -280.46c0,-14.7 0,-30.03 0.64,-44.72 0.64,-14.7 1.28,-28.11 1.92,-40.89 0.64,-13.42 1.28,-24.28 1.91,-33.22l-2.56 0 -152.05 399.3 -47.28 0 -0 0z"/>
  <polygon id="_5" class="fil9" points="2903.69,4093.39 2738.86,4093.39 2738.86,4060.17 2792.52,4048.04 2792.52,3683.24 2738.86,3670.46 2738.86,3637.24 2903.69,3637.24 2903.69,3670.46 2850.02,3683.24 2850.02,4048.04 2903.69,4060.17 "/>
  <path id="_6" class="fil10" d="M3251.74 3681.33c-24.28,0 -46,4.47 -65.8,12.78 -19.8,8.3 -36.41,20.44 -49.83,36.41 -13.42,15.97 -24.28,35.14 -31.31,57.5 -7.03,23 -10.86,48.56 -10.86,77.3 0,37.69 5.75,70.28 17.25,97.75 12.14,27.47 29.39,49.19 52.39,63.89 23.64,14.69 52.39,22.36 87.52,22.36 19.81,0 38.97,-1.92 56.86,-5.11 17.89,-3.19 35.14,-7.67 52.39,-12.78l0 49.83c-17.25,6.39 -34.5,10.86 -53.03,14.06 -17.89,3.19 -39.61,4.47 -64.52,4.47 -46.64,0 -84.97,-9.58 -116.28,-28.75 -31.31,-19.17 -54.31,-46.64 -70.28,-81.78 -15.33,-35.14 -23,-76.67 -23,-124.58 0,-34.5 4.47,-65.8 14.06,-94.56 9.58,-28.75 23.64,-53.02 42.17,-74.11 18.53,-21.08 41.53,-37.06 69,-48.56 27.47,-10.86 58.78,-16.61 93.92,-16.61 23.64,0 46,2.56 67.72,7.03 21.72,4.47 40.89,11.5 58.14,19.8l-23 48.56c-14.06,-6.39 -30.03,-12.14 -47.28,-17.25 -17.25,-5.11 -35.78,-7.67 -56.22,-7.67l-0.01 0.02z"/>
  <polygon id="_7" class="fil11" points="3945.42,4093.39 3690.51,4093.39 3690.51,3637.24 3945.42,3637.24 3945.42,3687.72 3748,3687.72 3748,3830.19 3933.92,3830.19 3933.92,3880.02 3748,3880.02 3748,4042.93 3945.42,4042.93 "/>
  <path id="_8" class="fil12" d="M4431.46 3637.24l-162.91 456.16 -57.5 0 -162.91 -456.16 60.06 0 102.86 292.61c4.47,12.14 8.94,24.28 12.14,35.78 3.19,11.5 6.39,22.36 8.94,33.22 3.19,10.22 5.75,20.44 7.67,30.67 1.92,-10.22 4.47,-20.44 7.67,-31.31 2.56,-10.86 5.75,-21.72 8.94,-33.22 3.83,-11.5 7.67,-23.64 12.14,-36.42l102.22 -291.33 60.69 0 -0.01 0z"/>
  <polygon id="_9" class="fil13" points="4812.73,4093.39 4557.82,4093.39 4557.82,3637.24 4812.73,3637.24 4812.73,3687.72 4615.32,3687.72 4615.32,3830.19 4801.23,3830.19 4801.23,3880.02 4615.32,3880.02 4615.32,4042.93 4812.73,4042.93 "/>
  <path id="_10" class="fil14" d="M5339.03 4093.39l-67.08 0 -244.05 -378.85 -2.56 0c0.64,9.58 1.92,21.08 2.56,34.5 0.64,13.42 0.64,28.11 1.28,43.44 0.64,14.69 1.28,30.03 1.28,46l0 254.91 -53.02 0 0 -456.16 66.44 0 243.41 377.57 2.56 0c-0.64,-7.03 -1.28,-17.25 -1.92,-30.67 -0.64,-13.42 -0.64,-28.75 -1.28,-44.72 -0.64,-15.97 -1.28,-31.3 -1.28,-44.72l0 -257.47 53.67 0 0 456.16 -0.01 0.01z"/>
  <polygon id="_11" class="fil15" points="5671.74,4093.39 5614.24,4093.39 5614.24,3687.72 5471.78,3687.72 5471.78,3637.24 5813.57,3637.24 5813.57,3687.72 5671.74,3687.72 "/>
  <path id="_12" class="fil16" d="M6205.71 3971.37c0,27.47 -6.39,50.47 -19.81,69 -13.42,19.17 -31.94,33.86 -56.86,44.08 -24.28,10.22 -53.03,15.33 -86.25,15.33 -17.25,0 -33.22,-0.64 -49.19,-2.56 -15.33,-1.92 -29.39,-3.83 -42.17,-7.03 -12.78,-3.2 -24.28,-7.67 -33.86,-12.14l0 -54.94c15.33,7.03 34.5,12.78 56.86,18.53 23,5.75 46.64,8.3 70.92,8.3 22.36,0 41.53,-3.19 56.86,-8.94 15.33,-5.75 26.83,-14.7 34.5,-25.56 7.67,-10.86 11.5,-24.28 11.5,-38.97 0,-14.69 -3.19,-27.47 -9.58,-37.69 -6.39,-10.22 -17.25,-19.81 -33.22,-28.11 -15.33,-8.94 -37.06,-18.53 -64.53,-28.11 -19.81,-7.03 -37.06,-14.7 -51.75,-23 -14.7,-8.31 -26.83,-17.89 -36.42,-28.75 -9.58,-10.86 -17.25,-23 -21.72,-36.41 -5.11,-13.42 -7.67,-29.39 -7.67,-47.28 0,-24.28 6.39,-44.72 18.53,-61.97 12.14,-17.25 29.39,-30.67 51.11,-40.25 22.36,-9.58 47.28,-14.06 76.03,-14.06 24.92,0 47.91,2.56 69,7.03 21.08,4.47 39.61,10.86 56.86,18.53l-17.89 49.19c-15.97,-7.03 -33.22,-12.78 -51.75,-17.25 -18.53,-4.47 -37.69,-7.03 -57.5,-7.03 -19.17,0 -35.14,2.56 -47.91,8.31 -12.78,5.75 -22.36,13.42 -28.75,23.64 -6.39,9.58 -9.58,21.08 -9.58,34.5 0,15.33 3.2,28.11 9.58,38.33 6.39,10.22 16.61,19.17 31.31,27.47 14.69,8.31 33.86,16.61 58.78,26.19 26.83,9.58 49.83,20.44 68.36,31.94 18.53,10.86 31.94,24.28 41.53,40.25 9.58,15.97 14.7,35.78 14.7,59.42l-0.02 0.01z"/>
 </g>
</svg>
