<?xml version="1.0" encoding="UTF-8"?>
<!DOCTYPE svg PUBLIC "-//W3C//DTD SVG 1.1//EN" "http://www.w3.org/Graphics/SVG/1.1/DTD/svg11.dtd">
<!-- Creator: CorelDRAW (Evaluation Version) -->
<svg xmlns="http://www.w3.org/2000/svg" xml:space="preserve" width="8.5in" height="11in" version="1.1" style="shape-rendering:geometricPrecision; text-rendering:geometricPrecision; image-rendering:optimizeQuality; fill-rule:evenodd; clip-rule:evenodd"
viewBox="0 0 8500 11000"
 xmlns:xlink="http://www.w3.org/1999/xlink"
 xmlns:xodm="http://www.corel.com/coreldraw/odm/2003">
 <defs>
  <style type="text/css">
   <![CDATA[
    .fil0 {fill:url(#id0)}
    .fil3 {fill:url(#id1)}
    .fil1 {fill:url(#id2)}
    .fil2 {fill:url(#id3)}
    .fil4 {fill:url(#id4);fill-rule:nonzero}
   ]]>
  </style>
  <linearGradient id="id0" gradientUnits="userSpaceOnUse" x1="1846.2" y1="4186.69" x2="1248.17" y2="4029.24">
   <stop offset="0" style="stop-opacity:1; stop-color:#F7DE7B"/>
   <stop offset="0.121569" style="stop-opacity:1; stop-color:#D5AF54"/>
   <stop offset="0.341176" style="stop-opacity:1; stop-color:#B27F2C"/>
   <stop offset="0.435294" style="stop-opacity:1; stop-color:#D4AE53"/>
   <stop offset="0.839216" style="stop-opacity:1; stop-color:#F7DE7B"/>
   <stop offset="0.956863" style="stop-opacity:1; stop-color:#D5AF54"/>
   <stop offset="1" style="stop-opacity:1; stop-color:#B27F2C"/>
  </linearGradient>
  <linearGradient id="id1" gradientUnits="userSpaceOnUse" xlink:href="#id0" x1="1646.96" y1="4144.32" x2="1283.58" y2="4012.4">
  </linearGradient>
  <linearGradient id="id2" gradientUnits="userSpaceOnUse" xlink:href="#id0" x1="1722.07" y1="4095.76" x2="1487.5" y2="4017.37">
  </linearGradient>
  <linearGradient id="id3" gradientUnits="userSpaceOnUse" xlink:href="#id0" x1="1741.06" y1="4184.67" x2="1501.03" y2="4120.83">
  </linearGradient>
  <linearGradient id="id4" gradientUnits="objectBoundingBox" xlink:href="#id0" x1="154.17%" y1="102.7%" x2="0%" y2="0%">
  </linearGradient>
 </defs>
 <g id="Layer_x0020_1">
  <metadata id="CorelCorpID_0Corel-Layer"/>
  <path class="fil0" d="M1411.21 4069.52l0 80.85c0,6.96 0.52,14.77 -1.22,21 -3.19,11.38 -10.25,7.56 -12.3,10.24 1.85,1.7 13.12,0.73 15.55,0.73l54.07 0.59c36.02,0.67 60.71,-14.06 81.73,-39.62 8.54,-10.38 20.21,-21.78 31.93,-28.58 23.47,-13.64 56.66,-10.55 84.25,-10.58l23.39 0.07c-4.33,-1.7 -33.18,-5.52 -40.17,-6.58 -34.93,-5.3 -67.03,-8.15 -95.33,15.01 -10.06,8.23 -14.72,14.94 -22.81,24.32 -10.48,12.15 -20.21,26.39 -36.61,33.82 -11.35,5.15 -26.67,7.5 -40.89,5.6 -23.59,-3.15 -20.24,-21.24 -20.24,-44.37l-0.01 -71.92c0.01,-7.73 -1.91,-11.9 -8.74,-13.52 -4.77,-1.13 -14.78,-1.97 -19.84,-2.15 2.09,4.76 7.24,-0.46 7.24,25.09z"/>
  <path class="fil1" d="M1546.15 4025.87c0.99,2.37 2.37,0.03 7.32,2.65 2.43,1.28 3.85,2.78 5.19,5.22 2.68,4.88 2.3,12.16 2.31,18.42 0.02,13.49 -0.57,28.46 0.08,41.74 3.1,-1 6.42,-3.08 9.68,-4.27 3.61,-1.31 7.27,-2.11 10.98,-3.4l-0.03 -54.54c9.48,-0.14 42.42,-0.52 49.91,0.36 25.27,2.96 24.89,20.37 28.17,22.22 1.48,-1.95 -0.85,-26.73 -1,-29 -18.2,-0.78 -38.15,-0.02 -56.54,0 -9.42,0.01 -18.85,0.02 -28.27,0.02 -1.91,0 -25.28,-0.35 -27.08,0.22 -0.11,0.04 -0.28,0.13 -0.37,0.17 -0.09,0.04 -0.24,0.11 -0.35,0.19z"/>
  <path class="fil2" d="M1665.59 4182.97c1.39,-2.72 12.42,-32.41 12.22,-33.76 -2.94,-0.24 -1.23,-0.08 -4.82,4.95 -14.54,20.39 -26.13,23.71 -53.89,22.48 -13.64,-0.6 -25.5,-4.73 -31.12,-12.51 -7.8,-10.8 -6.2,-21.93 -6.33,-37.15 -4.57,1.67 -14.71,11.66 -18.28,15.77 -2.91,3.36 -2.4,3.45 -2.04,8.76 0.92,13.59 8.8,22.46 18.41,26.81 12.22,5.54 25.85,4.81 40.34,4.79 15.17,-0.03 30.33,-0.11 45.5,-0.14z"/>
  <path class="fil3" d="M1523.65 4141.19l7.11 -8.65c7.18,-9 4.42,-7.91 14.7,-18.11 6.72,-6.67 5.82,-3.13 5.55,-13.67 -0.7,-27.19 -12.78,-49.02 -34.11,-62.48 -18.37,-11.59 -39,-13.04 -64.47,-13.02 -12.9,0.01 -25.79,-0.01 -38.69,0.02 -12.82,0.02 -26.61,-0.47 -39.3,0.09 0.95,0.84 1.02,0.81 2.74,1.37 1.3,0.42 2.35,0.7 3.43,1 7.02,1.97 14.44,3.08 21.87,3.43 11.31,0.54 22.75,0.31 34.07,0.31 22.81,0 41.41,-0.88 58.69,9.59 24.09,14.6 33.32,41.31 32.31,70.1 -0.61,17.58 -3.84,24.15 -3.91,30.01z"/>
  <path class="fil4" d="M1398.4 4208.56c0,2.48 -0.46,4.56 -1.36,6.23 -0.93,1.67 -2.26,2.94 -3.97,3.78 -1.7,0.84 -3.78,1.27 -6.22,1.27l-6.17 0 0 -22.12 6.82 0c2.23,0 4.15,0.4 5.79,1.24 1.65,0.83 2.88,2.04 3.78,3.65 0.9,1.58 1.33,3.56 1.33,5.95zm-2.94 0.09c0,-1.95 -0.34,-3.56 -0.99,-4.83 -0.65,-1.27 -1.58,-2.2 -2.85,-2.79 -1.24,-0.62 -2.76,-0.93 -4.52,-0.93l-3.62 0 0 17.35 3 0c3,0 5.24,-0.74 6.72,-2.2 1.52,-1.49 2.26,-3.69 2.26,-6.6z"/>
  <polygon id="_1" class="fil4" points="1411.87,4208.59 1417.63,4197.72 1420.64,4197.72 1413.26,4211.26 1413.26,4219.84 1410.48,4219.84 1410.48,4211.38 1403.1,4197.72 1406.14,4197.72 "/>
  <path id="_2" class="fil4" d="M1444.3 4219.84l-3.26 0 -11.83 -18.37 -0.12 0c0.03,0.46 0.09,1.02 0.12,1.67 0.03,0.65 0.03,1.36 0.06,2.11 0.03,0.71 0.06,1.46 0.06,2.23l0 12.36 -2.57 0 0 -22.12 3.22 0 11.8 18.31 0.13 0c-0.03,-0.34 -0.06,-0.83 -0.09,-1.49 -0.03,-0.65 -0.03,-1.39 -0.06,-2.17 -0.03,-0.77 -0.06,-1.52 -0.06,-2.17l0 -12.48 2.6 0 0 22.12z"/>
  <path id="_3" class="fil4" d="M1467.31 4219.84l-2.67 -6.85 -8.77 0 -2.63 6.85 -2.82 0 8.65 -22.22 2.51 0 8.61 22.22 -2.88 0zm-5.98 -16.02c-0.06,-0.15 -0.15,-0.46 -0.31,-0.9 -0.16,-0.43 -0.28,-0.87 -0.44,-1.33 -0.12,-0.46 -0.22,-0.84 -0.31,-1.09 -0.09,0.4 -0.22,0.84 -0.34,1.27 -0.09,0.4 -0.22,0.8 -0.34,1.15 -0.09,0.34 -0.19,0.65 -0.28,0.9l-2.51 6.69 7 0 -2.48 -6.69z"/>
  <path id="_4" class="fil4" d="M1486.11 4219.84l-7.28 -19.4 -0.12 0c0.03,0.41 0.09,0.93 0.12,1.58 0.03,0.65 0.03,1.33 0.06,2.11 0.03,0.74 0.03,1.52 0.03,2.29l0 13.42 -2.57 0 0 -22.12 4.12 0 6.81 18.13 0.13 0 6.94 -18.13 4.09 0 0 22.12 -2.76 0 0 -13.6c0,-0.71 0,-1.46 0.03,-2.17 0.03,-0.71 0.06,-1.36 0.09,-1.98 0.03,-0.65 0.06,-1.18 0.09,-1.61l-0.12 0 -7.37 19.37 -2.3 0z"/>
  <polygon id="_5" class="fil4" points="1513.81,4219.84 1505.81,4219.84 1505.81,4218.23 1508.42,4217.64 1508.42,4199.95 1505.81,4199.33 1505.81,4197.72 1513.81,4197.72 1513.81,4199.33 1511.2,4199.95 1511.2,4217.64 1513.81,4218.23 "/>
  <path id="_6" class="fil4" d="M1530.69 4199.86c-1.18,0 -2.23,0.22 -3.19,0.62 -0.96,0.41 -1.77,0.99 -2.42,1.77 -0.65,0.78 -1.18,1.7 -1.52,2.79 -0.34,1.11 -0.53,2.35 -0.53,3.75 0,1.83 0.28,3.41 0.83,4.74 0.59,1.33 1.43,2.39 2.54,3.1 1.15,0.71 2.54,1.08 4.24,1.08 0.96,0 1.89,-0.09 2.76,-0.25 0.87,-0.15 1.7,-0.37 2.54,-0.62l0 2.41c-0.84,0.31 -1.67,0.53 -2.57,0.69 -0.87,0.15 -1.92,0.22 -3.13,0.22 -2.26,0 -4.12,-0.46 -5.64,-1.39 -1.52,-0.93 -2.63,-2.26 -3.41,-3.97 -0.74,-1.7 -1.11,-3.72 -1.11,-6.04 0,-1.67 0.22,-3.19 0.68,-4.59 0.46,-1.39 1.15,-2.57 2.05,-3.59 0.9,-1.02 2.01,-1.8 3.35,-2.35 1.33,-0.53 2.85,-0.81 4.55,-0.81 1.15,0 2.23,0.13 3.29,0.34 1.05,0.22 1.98,0.56 2.82,0.96l-1.11 2.35c-0.69,-0.31 -1.46,-0.59 -2.3,-0.84 -0.83,-0.25 -1.74,-0.37 -2.72,-0.37z"/>
  <polygon id="_7" class="fil4" points="1564.33,4219.84 1551.96,4219.84 1551.96,4197.72 1564.33,4197.72 1564.33,4200.17 1554.76,4200.17 1554.76,4207.08 1563.77,4207.08 1563.77,4209.49 1554.76,4209.49 1554.76,4217.39 1564.33,4217.39 "/>
  <path id="_8" class="fil4" d="M1587.9 4197.72l-7.9 22.12 -2.79 0 -7.9 -22.12 2.91 0 4.99 14.19c0.22,0.59 0.43,1.18 0.59,1.74 0.16,0.56 0.31,1.08 0.44,1.61 0.15,0.5 0.28,0.99 0.37,1.49 0.09,-0.5 0.22,-0.99 0.37,-1.52 0.13,-0.52 0.28,-1.05 0.44,-1.61 0.19,-0.56 0.37,-1.15 0.59,-1.76l4.96 -14.13 2.94 0z"/>
  <polygon id="_9" class="fil4" points="1606.39,4219.84 1594.03,4219.84 1594.03,4197.72 1606.39,4197.72 1606.39,4200.17 1596.82,4200.17 1596.82,4207.08 1605.83,4207.08 1605.83,4209.49 1596.82,4209.49 1596.82,4217.39 1606.39,4217.39 "/>
  <path id="_10" class="fil4" d="M1631.92 4219.84l-3.26 0 -11.83 -18.37 -0.12 0c0.03,0.46 0.09,1.02 0.12,1.67 0.03,0.65 0.03,1.36 0.06,2.11 0.03,0.71 0.06,1.46 0.06,2.23l0 12.36 -2.57 0 0 -22.12 3.22 0 11.8 18.31 0.13 0c-0.03,-0.34 -0.06,-0.83 -0.09,-1.49 -0.03,-0.65 -0.03,-1.39 -0.06,-2.17 -0.03,-0.77 -0.06,-1.52 -0.06,-2.17l0 -12.48 2.6 0 0 22.12z"/>
  <polygon id="_11" class="fil4" points="1648.05,4219.84 1645.26,4219.84 1645.26,4200.17 1638.35,4200.17 1638.35,4197.72 1654.93,4197.72 1654.93,4200.17 1648.05,4200.17 "/>
  <path id="_12" class="fil4" d="M1673.95 4213.93c0,1.33 -0.31,2.45 -0.96,3.35 -0.65,0.93 -1.55,1.64 -2.76,2.14 -1.18,0.5 -2.57,0.74 -4.18,0.74 -0.84,0 -1.61,-0.03 -2.39,-0.13 -0.74,-0.09 -1.43,-0.19 -2.05,-0.34 -0.62,-0.16 -1.18,-0.37 -1.64,-0.59l0 -2.67c0.74,0.34 1.67,0.62 2.76,0.9 1.11,0.28 2.26,0.4 3.44,0.4 1.09,0 2.02,-0.16 2.76,-0.43 0.74,-0.28 1.3,-0.71 1.67,-1.24 0.37,-0.53 0.56,-1.18 0.56,-1.89 0,-0.71 -0.15,-1.33 -0.46,-1.83 -0.31,-0.49 -0.83,-0.96 -1.61,-1.36 -0.74,-0.43 -1.8,-0.9 -3.13,-1.36 -0.96,-0.34 -1.8,-0.71 -2.51,-1.11 -0.71,-0.41 -1.3,-0.87 -1.77,-1.4 -0.46,-0.52 -0.83,-1.11 -1.05,-1.76 -0.25,-0.65 -0.37,-1.43 -0.37,-2.3 0,-1.18 0.31,-2.17 0.9,-3 0.59,-0.83 1.43,-1.49 2.48,-1.95 1.08,-0.46 2.29,-0.68 3.69,-0.68 1.2,0 2.32,0.13 3.35,0.34 1.02,0.22 1.92,0.52 2.76,0.9l-0.87 2.39c-0.78,-0.34 -1.61,-0.62 -2.51,-0.84 -0.9,-0.22 -1.83,-0.34 -2.79,-0.34 -0.93,0 -1.7,0.12 -2.32,0.4 -0.62,0.28 -1.09,0.65 -1.4,1.15 -0.31,0.46 -0.46,1.02 -0.46,1.67 0,0.74 0.16,1.37 0.46,1.86 0.31,0.49 0.81,0.93 1.52,1.33 0.71,0.4 1.64,0.81 2.85,1.27 1.3,0.46 2.42,0.99 3.31,1.55 0.9,0.53 1.55,1.18 2.02,1.95 0.46,0.78 0.71,1.74 0.71,2.88z"/>
 </g>
</svg>
